<svg xmlns="http://www.w3.org/2000/svg" viewBox="-14 -14 518.11 128"><rect x="-14" y="-14" width="518.11" height="128" rx="14" fill="#071739"/><g><mask id="cut3617dd76" maskUnits="userSpaceOnUse" x="0" y="0" width="139.79" height="100"><rect width="139.79" height="100" fill="#fff"/><g fill="none" stroke="#000" stroke-width="4.41" stroke-linejoin="round"><path d="M0 50C0.16 50 0.32 49.94 0.48 49.91C0.64 49.87 0.8 49.84 0.97 49.8C1.29 49.73 1.61 49.66 1.93 49.58C2.57 49.43 3.22 49.25 3.86 49.06C5.15 48.68 6.44 48.22 7.72 47.7C10.3 46.65 12.87 45.31 15.45 44.12C20.13 41.95 24.82 38.8 29.51 34.59C31.86 32.49 34.2 30.13 36.54 27.6C38.89 25.07 41.23 22.37 43.58 19.67C47.96 14.62 52.35 9.55 56.74 5.88C58.93 4.04 61.12 2.55 63.32 1.54C65.51 0.53 67.7 0 69.9 0C72.09 0 74.28 0.53 76.47 1.53C78.66 2.54 80.85 4.03 83.04 5.86C87.42 9.53 91.8 14.58 96.18 19.63C94.43 17.99 92.68 16.63 90.93 15.7C89.19 14.78 87.44 14.29 85.69 14.29C82.62 14.29 79.55 15.86 76.48 18.48C73.41 21.11 70.34 24.73 67.26 28.34C65.11 30.88 62.95 33.4 60.79 35.67C58.63 37.94 56.47 39.95 54.31 41.63C49.99 44.97 45.67 46.91 41.36 48.03C37.04 49.14 32.72 49.51 28.4 49.72C24.08 49.92 19.76 49.95 15.45 49.98C10.3 50 5.15 50 0 50Z"/><path d="M69.9 25.27C70.77 26.27 71.65 27.31 72.53 28.34C74.69 30.88 76.85 33.4 79.01 35.67C81.17 37.94 83.32 39.95 85.48 41.63C89.8 44.97 94.12 46.91 98.44 48.03C102.76 49.14 107.07 49.51 111.39 49.72C115.71 49.92 120.03 49.95 124.35 49.98C129.5 50 134.65 50 139.79 50C139.63 50 139.47 49.94 139.31 49.91C139.15 49.87 138.99 49.84 138.83 49.8C138.51 49.73 138.18 49.66 137.86 49.58C137.22 49.43 136.58 49.25 135.93 49.06C134.65 48.68 133.36 48.22 132.07 47.7C129.5 46.65 126.92 45.31 124.35 44.12C121.21 42.67 118.08 40.8 114.95 38.44C111.81 36.09 108.68 33.24 105.54 30.02C105.07 29.46 104.59 28.9 104.11 28.34C101.04 24.73 97.97 21.11 94.9 18.48C91.83 15.86 88.76 14.29 85.69 14.29C83.06 14.29 80.42 15.42 77.79 17.42C75.16 19.41 72.53 22.24 69.9 25.27Z"/><g transform="rotate(180 69.9 50)"><path d="M0 50C0.16 50 0.32 49.94 0.48 49.91C0.64 49.87 0.8 49.84 0.97 49.8C1.29 49.73 1.61 49.66 1.93 49.58C2.57 49.43 3.22 49.25 3.86 49.06C5.15 48.68 6.44 48.22 7.72 47.7C10.3 46.65 12.87 45.31 15.45 44.12C20.13 41.95 24.82 38.8 29.51 34.59C31.86 32.49 34.2 30.13 36.54 27.6C38.89 25.07 41.23 22.37 43.58 19.67C47.96 14.62 52.35 9.55 56.74 5.88C58.93 4.04 61.12 2.55 63.32 1.54C65.51 0.53 67.7 0 69.9 0C72.09 0 74.28 0.53 76.47 1.53C78.66 2.54 80.85 4.03 83.04 5.86C87.42 9.53 91.8 14.58 96.18 19.63C94.43 17.99 92.68 16.63 90.93 15.7C89.19 14.78 87.44 14.29 85.69 14.29C82.62 14.29 79.55 15.86 76.48 18.48C73.41 21.11 70.34 24.73 67.26 28.34C65.11 30.88 62.95 33.4 60.79 35.67C58.63 37.94 56.47 39.95 54.31 41.63C49.99 44.97 45.67 46.91 41.36 48.03C37.04 49.14 32.72 49.51 28.4 49.72C24.08 49.92 19.76 49.95 15.45 49.98C10.3 50 5.15 50 0 50Z"/><path d="M69.9 25.27C70.77 26.27 71.65 27.31 72.53 28.34C74.69 30.88 76.85 33.4 79.01 35.67C81.17 37.94 83.32 39.95 85.48 41.63C89.8 44.97 94.12 46.91 98.44 48.03C102.76 49.14 107.07 49.51 111.39 49.72C115.71 49.92 120.03 49.95 124.35 49.98C129.5 50 134.65 50 139.79 50C139.63 50 139.47 49.94 139.31 49.91C139.15 49.87 138.99 49.84 138.83 49.8C138.51 49.73 138.18 49.66 137.86 49.58C137.22 49.43 136.58 49.25 135.93 49.06C134.65 48.68 133.36 48.22 132.07 47.7C129.5 46.65 126.92 45.31 124.35 44.12C121.21 42.67 118.08 40.8 114.95 38.44C111.81 36.09 108.68 33.24 105.54 30.02C105.07 29.46 104.59 28.9 104.11 28.34C101.04 24.73 97.97 21.11 94.9 18.48C91.83 15.86 88.76 14.29 85.69 14.29C83.06 14.29 80.42 15.42 77.79 17.42C75.16 19.41 72.53 22.24 69.9 25.27Z"/></g></g></mask><g mask="url(#cut3617dd76)"><g><path fill="#99D9EA" d="M0 50C0.16 50 0.32 49.94 0.48 49.91C0.64 49.87 0.8 49.84 0.97 49.8C1.29 49.73 1.61 49.66 1.93 49.58C2.57 49.43 3.22 49.25 3.86 49.06C5.15 48.68 6.44 48.22 7.72 47.7C10.3 46.65 12.87 45.31 15.45 44.12C20.13 41.95 24.82 38.8 29.51 34.59C31.86 32.49 34.2 30.13 36.54 27.6C38.89 25.07 41.23 22.37 43.58 19.67C47.96 14.62 52.35 9.55 56.74 5.88C58.93 4.04 61.12 2.55 63.32 1.54C65.51 0.53 67.7 0 69.9 0C72.09 0 74.28 0.53 76.47 1.53C78.66 2.54 80.85 4.03 83.04 5.86C87.42 9.53 91.8 14.58 96.18 19.63C94.43 17.99 92.68 16.63 90.93 15.7C89.19 14.78 87.44 14.29 85.69 14.29C82.62 14.29 79.55 15.86 76.48 18.48C73.41 21.11 70.34 24.73 67.26 28.34C65.11 30.88 62.95 33.4 60.79 35.67C58.63 37.94 56.47 39.95 54.31 41.63C49.99 44.97 45.67 46.91 41.36 48.03C37.04 49.14 32.72 49.51 28.4 49.72C24.08 49.92 19.76 49.95 15.45 49.98C10.3 50 5.15 50 0 50Z"/><path fill="#00A2E8" d="M69.9 25.27C70.77 26.27 71.65 27.31 72.53 28.34C74.69 30.88 76.85 33.4 79.01 35.67C81.17 37.94 83.32 39.95 85.48 41.63C89.8 44.97 94.12 46.91 98.44 48.03C102.76 49.14 107.07 49.51 111.39 49.72C115.71 49.92 120.03 49.95 124.35 49.98C129.5 50 134.65 50 139.79 50C139.63 50 139.47 49.94 139.31 49.91C139.15 49.87 138.99 49.84 138.83 49.8C138.51 49.73 138.18 49.66 137.86 49.58C137.22 49.43 136.58 49.25 135.93 49.06C134.65 48.68 133.36 48.22 132.07 47.7C129.5 46.65 126.92 45.31 124.35 44.12C121.21 42.67 118.08 40.8 114.95 38.44C111.81 36.09 108.68 33.24 105.54 30.02C105.07 29.46 104.59 28.9 104.11 28.34C101.04 24.73 97.97 21.11 94.9 18.48C91.83 15.86 88.76 14.29 85.69 14.29C83.06 14.29 80.42 15.42 77.79 17.42C75.16 19.41 72.53 22.24 69.9 25.27Z"/></g><g transform="rotate(180 69.9 50)"><path fill="#99D9EA" d="M0 50C0.16 50 0.32 49.94 0.48 49.91C0.64 49.87 0.8 49.84 0.97 49.8C1.29 49.73 1.61 49.66 1.93 49.58C2.57 49.43 3.22 49.25 3.86 49.06C5.15 48.68 6.44 48.22 7.72 47.7C10.3 46.65 12.87 45.31 15.45 44.12C20.13 41.95 24.82 38.8 29.51 34.59C31.86 32.49 34.2 30.13 36.54 27.6C38.89 25.07 41.23 22.37 43.58 19.67C47.96 14.62 52.35 9.55 56.74 5.88C58.93 4.04 61.12 2.55 63.32 1.54C65.51 0.53 67.7 0 69.9 0C72.09 0 74.28 0.53 76.47 1.53C78.66 2.54 80.85 4.03 83.04 5.86C87.42 9.53 91.8 14.58 96.18 19.63C94.43 17.99 92.68 16.63 90.93 15.7C89.19 14.78 87.44 14.29 85.69 14.29C82.62 14.29 79.55 15.86 76.48 18.48C73.41 21.11 70.34 24.73 67.26 28.34C65.11 30.88 62.95 33.4 60.79 35.67C58.63 37.94 56.47 39.95 54.31 41.63C49.99 44.97 45.67 46.91 41.36 48.03C37.04 49.14 32.72 49.51 28.4 49.72C24.08 49.92 19.76 49.95 15.45 49.98C10.3 50 5.15 50 0 50Z"/><path fill="#00A2E8" d="M69.9 25.27C70.77 26.27 71.65 27.31 72.53 28.34C74.69 30.88 76.85 33.4 79.01 35.67C81.17 37.94 83.32 39.95 85.48 41.63C89.8 44.97 94.12 46.91 98.44 48.03C102.76 49.14 107.07 49.51 111.39 49.72C115.71 49.92 120.03 49.95 124.35 49.98C129.5 50 134.65 50 139.79 50C139.63 50 139.47 49.94 139.31 49.91C139.15 49.87 138.99 49.84 138.83 49.8C138.51 49.73 138.18 49.66 137.86 49.58C137.22 49.43 136.58 49.25 135.93 49.06C134.65 48.68 133.36 48.22 132.07 47.7C129.5 46.65 126.92 45.31 124.35 44.12C121.21 42.67 118.08 40.8 114.95 38.44C111.81 36.09 108.68 33.24 105.54 30.02C105.07 29.46 104.59 28.9 104.11 28.34C101.04 24.73 97.97 21.11 94.9 18.48C91.83 15.86 88.76 14.29 85.69 14.29C83.06 14.29 80.42 15.42 77.79 17.42C75.16 19.41 72.53 22.24 69.9 25.27Z"/></g></g></g><path fill="#FFFFFF" d="M168.52 47.16Q164.47 47.16 161.64 45.69Q158.81 44.22 156.79 41.74L160.38 38.38Q162.08 40.45 164.12 41.51Q166.17 42.56 168.79 42.56Q171.87 42.56 173.44 41.18Q175 39.8 175 37.46Q175 35.57 173.9 34.47Q172.79 33.37 169.99 32.81L167.14 32.31Q162.45 31.43 160.1 29.23Q157.76 27.02 157.76 23.16Q157.76 21.04 158.56 19.32Q159.36 17.59 160.81 16.42Q162.26 15.25 164.33 14.6Q166.4 13.96 168.98 13.96Q172.61 13.96 175.28 15.22Q177.94 16.49 179.83 18.88L176.2 22.1Q174.96 20.49 173.16 19.52Q171.37 18.56 168.7 18.56Q165.94 18.56 164.42 19.66Q162.91 20.76 162.91 22.88Q162.91 24.9 164.15 25.89Q165.39 26.88 168.01 27.39L170.86 27.98Q175.69 28.9 177.92 31.11Q180.15 33.32 180.15 37.18Q180.15 39.44 179.37 41.28Q178.59 43.11 177.09 44.43Q175.6 45.74 173.44 46.45Q171.28 47.16 168.52 47.16M206.96 46.61L186.41 46.61L186.41 14.51L206.96 14.51L206.96 19.11L191.6 19.11L191.6 28.03L205.54 28.03L205.54 32.63L191.6 32.63L191.6 42.01L206.96 42.01M239.16 46.61L233.73 46.61L230.83 37.92L218.83 37.92L216.02 46.61L210.73 46.61L221.68 14.51L228.21 14.51L239.16 46.61M229.54 33.46L224.94 19.29L224.71 19.29L220.07 33.46M276.45 19.11L266.89 19.11L266.89 46.61L261.69 46.61L261.69 19.11L252.12 19.11L252.12 14.51L276.45 14.51M301.24 46.61L301.24 32.63L286.71 32.63L286.71 46.61L281.51 46.61L281.51 14.51L286.71 14.51L286.71 28.03L301.24 28.03L301.24 14.51L306.44 14.51L306.44 46.61M319.54 33.64L319.54 46.61L314.35 46.61L314.35 14.51L328.19 14.51Q332.51 14.51 335 17.11Q337.48 19.71 337.48 24.17Q337.48 27.62 335.89 29.89Q334.31 32.17 331.22 33.09L338.17 46.61L332.37 46.61L325.94 33.64L319.54 33.64M319.54 29.27L327.82 29.27Q329.8 29.27 330.9 28.24Q332.01 27.2 332.01 25.27L332.01 23.06Q332.01 21.13 330.9 20.1Q329.8 19.06 327.82 19.06L319.54 19.06M356.89 47.16Q353.76 47.16 351.21 46.08Q348.65 45 346.84 42.91Q345.02 40.82 344.03 37.71Q343.04 34.61 343.04 30.56Q343.04 26.51 344.03 23.41Q345.02 20.3 346.84 18.21Q348.65 16.12 351.21 15.04Q353.76 13.96 356.89 13.96Q360.01 13.96 362.57 15.04Q365.12 16.12 366.93 18.21Q368.75 20.3 369.74 23.41Q370.73 26.51 370.73 30.56Q370.73 34.61 369.74 37.71Q368.75 40.82 366.93 42.91Q365.12 45 362.57 46.08Q360.01 47.16 356.89 47.16M356.89 42.52Q358.73 42.52 360.27 41.87Q361.81 41.23 362.89 40.01Q363.97 38.79 364.57 37.04Q365.16 35.3 365.16 33.09L365.16 28.03Q365.16 25.82 364.57 24.08Q363.97 22.33 362.89 21.11Q361.81 19.89 360.27 19.25Q358.73 18.6 356.89 18.6Q355 18.6 353.48 19.25Q351.96 19.89 350.88 21.11Q349.8 22.33 349.21 24.08Q348.61 25.82 348.61 28.03L348.61 33.09Q348.61 35.3 349.21 37.04Q349.8 38.79 350.88 40.01Q351.96 41.23 353.48 41.87Q355 42.52 356.89 42.52M377.03 14.51L382.13 14.51L382.13 34.29Q382.13 38.38 383.7 40.45Q385.26 42.52 389.03 42.52Q392.8 42.52 394.37 40.45Q395.93 38.38 395.93 34.29L395.93 14.51L401.03 14.51L401.03 33.46Q401.03 37 400.39 39.57Q399.75 42.15 398.32 43.83Q396.9 45.51 394.62 46.33Q392.34 47.16 389.03 47.16Q385.72 47.16 383.44 46.33Q381.17 45.51 379.74 43.83Q378.32 42.15 377.67 39.57Q377.03 37 377.03 33.46M429.41 46.61L429.41 41.74L429.23 41.74Q428.72 44.08 426.49 45.62Q424.26 47.16 420.58 47.16Q417.73 47.16 415.29 46.08Q412.85 45 411.08 42.91Q409.31 40.82 408.32 37.71Q407.34 34.61 407.34 30.56Q407.34 26.56 408.35 23.45Q409.36 20.35 411.2 18.24Q413.04 16.12 415.61 15.04Q418.19 13.96 421.36 13.96Q425.68 13.96 428.67 15.87Q431.66 17.78 433.32 21.18L429.09 23.66Q428.17 21.41 426.24 20.01Q424.3 18.6 421.36 18.6Q417.54 18.6 415.22 21.04Q412.9 23.48 412.9 27.94L412.9 33.18Q412.9 37.64 415.22 40.08Q417.54 42.52 421.36 42.52Q422.88 42.52 424.26 42.13Q425.64 41.74 426.67 40.98Q427.71 40.22 428.33 39.09Q428.95 37.96 428.95 36.45L428.95 33.96L422.33 33.96L422.33 29.5L433.96 29.5L433.96 46.61M460.91 46.61L460.91 32.63L446.38 32.63L446.38 46.61L441.18 46.61L441.18 14.51L446.38 14.51L446.38 28.03L460.91 28.03L460.91 14.51L466.11 14.51L466.11 46.61"/><path fill="#FFFFFF" d="M165.58 85.9Q162.55 85.9 160.43 84.8Q158.31 83.7 156.79 81.83L159.48 79.32Q160.76 80.87 162.29 81.66Q163.83 82.45 165.79 82.45Q168.1 82.45 169.28 81.42Q170.45 80.39 170.45 78.63Q170.45 77.21 169.62 76.38Q168.79 75.56 166.69 75.14L164.55 74.76Q161.03 74.11 159.27 72.45Q157.51 70.8 157.51 67.9Q157.51 66.31 158.12 65.02Q158.72 63.73 159.81 62.85Q160.89 61.97 162.45 61.48Q164 61 165.93 61Q168.65 61 170.66 61.95Q172.66 62.9 174.07 64.69L171.35 67.11Q170.41 65.9 169.07 65.17Q167.72 64.45 165.72 64.45Q163.65 64.45 162.52 65.28Q161.38 66.11 161.38 67.69Q161.38 69.21 162.31 69.95Q163.24 70.69 165.21 71.07L167.34 71.52Q170.97 72.21 172.64 73.87Q174.31 75.52 174.31 78.42Q174.31 80.11 173.72 81.49Q173.14 82.87 172.02 83.85Q170.9 84.83 169.28 85.37Q167.65 85.9 165.58 85.9M216.13 85.9Q211.4 85.9 208.71 82.71Q206.02 79.52 206.02 73.45Q206.02 70.42 206.71 68.11Q207.4 65.8 208.71 64.21Q210.02 62.62 211.9 61.81Q213.78 61 216.13 61Q219.27 61 221.39 62.38Q223.51 63.76 224.71 66.45L221.44 68.24Q220.82 66.52 219.52 65.5Q218.23 64.48 216.13 64.48Q213.33 64.48 211.75 66.38Q210.16 68.28 210.16 71.62L210.16 75.28Q210.16 78.63 211.75 80.52Q213.33 82.42 216.13 82.42Q218.3 82.42 219.66 81.3Q221.02 80.18 221.68 78.42L224.82 80.32Q223.61 82.94 221.44 84.42Q219.27 85.9 216.13 85.9M266.5 85.49L256.01 85.49L256.01 82.32L259.29 82.32L259.29 64.59L256.01 64.59L256.01 61.41L266.5 61.41L266.5 64.59L263.18 64.59L263.18 82.32L266.5 82.32M314.9 85.49L299.48 85.49L299.48 61.41L314.9 61.41L314.9 64.86L303.38 64.86L303.38 71.56L313.83 71.56L313.83 75L303.38 75L303.38 82.04L314.9 82.04M362.37 85.49L354.51 72.18L351.85 67.07L351.75 67.07L351.75 85.49L348.02 85.49L348.02 61.41L352.37 61.41L360.23 74.73L362.89 79.83L362.99 79.83L362.99 61.41L366.72 61.41L366.72 85.49M409.77 85.9Q405.05 85.9 402.36 82.71Q399.67 79.52 399.67 73.45Q399.67 70.42 400.36 68.11Q401.05 65.8 402.36 64.21Q403.67 62.62 405.55 61.81Q407.43 61 409.77 61Q412.91 61 415.03 62.38Q417.15 63.76 418.36 66.45L415.08 68.24Q414.46 66.52 413.17 65.5Q411.88 64.48 409.77 64.48Q406.98 64.48 405.39 66.38Q403.81 68.28 403.81 71.62L403.81 75.28Q403.81 78.63 405.39 80.52Q406.98 82.42 409.77 82.42Q411.95 82.42 413.31 81.3Q414.67 80.18 415.33 78.42L418.46 80.32Q417.26 82.94 415.08 84.42Q412.91 85.9 409.77 85.9M466.11 85.49L450.69 85.49L450.69 61.41L466.11 61.41L466.11 64.86L454.59 64.86L454.59 71.56L465.04 71.56L465.04 75L454.59 75L454.59 82.04L466.11 82.04"/></svg>

