<svg xmlns="http://www.w3.org/2000/svg" viewBox="0 0 309.32 187.98"><g transform="translate(84.76 0)"><g><mask id="cut3617dd76" maskUnits="userSpaceOnUse" x="0" y="0" width="139.79" height="100"><rect width="139.79" height="100" fill="#fff"/><g fill="none" stroke="#000" stroke-width="4.41" stroke-linejoin="round"><path d="M0 50C0.16 50 0.32 49.94 0.48 49.91C0.64 49.87 0.8 49.84 0.97 49.8C1.29 49.73 1.61 49.66 1.93 49.58C2.57 49.43 3.22 49.25 3.86 49.06C5.15 48.68 6.44 48.22 7.72 47.7C10.3 46.65 12.87 45.31 15.45 44.12C20.13 41.95 24.82 38.8 29.51 34.59C31.86 32.49 34.2 30.13 36.54 27.6C38.89 25.07 41.23 22.37 43.58 19.67C47.96 14.62 52.35 9.55 56.74 5.88C58.93 4.04 61.12 2.55 63.32 1.54C65.51 0.53 67.7 0 69.9 0C72.09 0 74.28 0.53 76.47 1.53C78.66 2.54 80.85 4.03 83.04 5.86C87.42 9.53 91.8 14.58 96.18 19.63C94.43 17.99 92.68 16.63 90.93 15.7C89.19 14.78 87.44 14.29 85.69 14.29C82.62 14.29 79.55 15.86 76.48 18.48C73.41 21.11 70.34 24.73 67.26 28.34C65.11 30.88 62.95 33.4 60.79 35.67C58.63 37.94 56.47 39.95 54.31 41.63C49.99 44.97 45.67 46.91 41.36 48.03C37.04 49.14 32.72 49.51 28.4 49.72C24.08 49.92 19.76 49.95 15.45 49.98C10.3 50 5.15 50 0 50Z"/><path d="M69.9 25.27C70.77 26.27 71.65 27.31 72.53 28.34C74.69 30.88 76.85 33.4 79.01 35.67C81.17 37.94 83.32 39.95 85.48 41.63C89.8 44.97 94.12 46.91 98.44 48.03C102.76 49.14 107.07 49.51 111.39 49.72C115.71 49.92 120.03 49.95 124.35 49.98C129.5 50 134.65 50 139.79 50C139.63 50 139.47 49.94 139.31 49.91C139.15 49.87 138.99 49.84 138.83 49.8C138.51 49.73 138.18 49.66 137.86 49.58C137.22 49.43 136.58 49.25 135.93 49.06C134.65 48.68 133.36 48.22 132.07 47.7C129.5 46.65 126.92 45.31 124.35 44.12C121.21 42.67 118.08 40.8 114.95 38.44C111.81 36.09 108.68 33.24 105.54 30.02C105.07 29.46 104.59 28.9 104.11 28.34C101.04 24.73 97.97 21.11 94.9 18.48C91.83 15.86 88.76 14.29 85.69 14.29C83.06 14.29 80.42 15.42 77.79 17.42C75.16 19.41 72.53 22.24 69.9 25.27Z"/><g transform="rotate(180 69.9 50)"><path d="M0 50C0.16 50 0.32 49.94 0.48 49.91C0.64 49.87 0.8 49.84 0.97 49.8C1.29 49.73 1.61 49.66 1.93 49.58C2.57 49.43 3.22 49.25 3.86 49.06C5.15 48.68 6.44 48.22 7.72 47.7C10.3 46.65 12.87 45.31 15.45 44.12C20.13 41.95 24.82 38.8 29.51 34.59C31.86 32.49 34.2 30.13 36.54 27.6C38.89 25.07 41.23 22.37 43.58 19.67C47.96 14.62 52.35 9.55 56.74 5.88C58.93 4.04 61.12 2.55 63.32 1.54C65.51 0.53 67.7 0 69.9 0C72.09 0 74.28 0.53 76.47 1.53C78.66 2.54 80.85 4.03 83.04 5.86C87.42 9.53 91.8 14.58 96.18 19.63C94.43 17.99 92.68 16.63 90.93 15.7C89.19 14.78 87.44 14.29 85.69 14.29C82.62 14.29 79.55 15.86 76.48 18.48C73.41 21.11 70.34 24.73 67.26 28.34C65.11 30.88 62.95 33.4 60.79 35.67C58.63 37.94 56.47 39.95 54.31 41.63C49.99 44.97 45.67 46.91 41.36 48.03C37.04 49.14 32.72 49.51 28.4 49.72C24.08 49.92 19.76 49.95 15.45 49.98C10.3 50 5.15 50 0 50Z"/><path d="M69.9 25.27C70.77 26.27 71.65 27.31 72.53 28.34C74.69 30.88 76.85 33.4 79.01 35.67C81.17 37.94 83.32 39.95 85.48 41.63C89.8 44.97 94.12 46.91 98.44 48.03C102.76 49.14 107.07 49.51 111.39 49.72C115.71 49.92 120.03 49.95 124.35 49.98C129.5 50 134.65 50 139.79 50C139.63 50 139.47 49.94 139.31 49.91C139.15 49.87 138.99 49.84 138.83 49.8C138.51 49.73 138.18 49.66 137.86 49.58C137.22 49.43 136.58 49.25 135.93 49.06C134.65 48.68 133.36 48.22 132.07 47.7C129.5 46.65 126.92 45.31 124.35 44.12C121.21 42.67 118.08 40.8 114.95 38.44C111.81 36.09 108.68 33.24 105.54 30.02C105.07 29.46 104.59 28.9 104.11 28.34C101.04 24.73 97.97 21.11 94.9 18.48C91.83 15.86 88.76 14.29 85.69 14.29C83.06 14.29 80.42 15.42 77.79 17.42C75.16 19.41 72.53 22.24 69.9 25.27Z"/></g></g></mask><g mask="url(#cut3617dd76)"><g><path fill="#54B5CB" d="M0 50C0.16 50 0.32 49.94 0.48 49.91C0.64 49.87 0.8 49.84 0.97 49.8C1.29 49.73 1.61 49.66 1.93 49.58C2.57 49.43 3.22 49.25 3.86 49.06C5.15 48.68 6.44 48.22 7.72 47.7C10.3 46.65 12.87 45.31 15.45 44.12C20.13 41.95 24.82 38.8 29.51 34.59C31.86 32.49 34.2 30.13 36.54 27.6C38.89 25.07 41.23 22.37 43.58 19.67C47.96 14.62 52.35 9.55 56.74 5.88C58.93 4.04 61.12 2.55 63.32 1.54C65.51 0.53 67.7 0 69.9 0C72.09 0 74.28 0.53 76.47 1.53C78.66 2.54 80.85 4.03 83.04 5.86C87.42 9.53 91.8 14.58 96.18 19.63C94.43 17.99 92.68 16.63 90.93 15.7C89.19 14.78 87.44 14.29 85.69 14.29C82.62 14.29 79.55 15.86 76.48 18.48C73.41 21.11 70.34 24.73 67.26 28.34C65.11 30.88 62.95 33.4 60.79 35.67C58.63 37.94 56.47 39.95 54.31 41.63C49.99 44.97 45.67 46.91 41.36 48.03C37.04 49.14 32.72 49.51 28.4 49.72C24.08 49.92 19.76 49.95 15.45 49.98C10.3 50 5.15 50 0 50Z"/><path fill="#027DBF" d="M69.9 25.27C70.77 26.27 71.65 27.31 72.53 28.34C74.69 30.88 76.85 33.4 79.01 35.67C81.17 37.94 83.32 39.95 85.48 41.63C89.8 44.97 94.12 46.91 98.44 48.03C102.76 49.14 107.07 49.51 111.39 49.72C115.71 49.92 120.03 49.95 124.35 49.98C129.5 50 134.65 50 139.79 50C139.63 50 139.47 49.94 139.31 49.91C139.15 49.87 138.99 49.84 138.83 49.8C138.51 49.73 138.18 49.66 137.86 49.58C137.22 49.43 136.58 49.25 135.93 49.06C134.65 48.68 133.36 48.22 132.07 47.7C129.5 46.65 126.92 45.31 124.35 44.12C121.21 42.67 118.08 40.8 114.95 38.44C111.81 36.09 108.68 33.24 105.54 30.02C105.07 29.46 104.59 28.9 104.11 28.34C101.04 24.73 97.97 21.11 94.9 18.48C91.83 15.86 88.76 14.29 85.69 14.29C83.06 14.29 80.42 15.42 77.79 17.42C75.16 19.41 72.53 22.24 69.9 25.27Z"/></g><g transform="rotate(180 69.9 50)"><path fill="#54B5CB" d="M0 50C0.16 50 0.32 49.94 0.48 49.91C0.64 49.87 0.8 49.84 0.97 49.8C1.29 49.73 1.61 49.66 1.93 49.58C2.57 49.43 3.22 49.25 3.86 49.06C5.15 48.68 6.44 48.22 7.72 47.7C10.3 46.65 12.87 45.31 15.45 44.12C20.13 41.95 24.82 38.8 29.51 34.59C31.86 32.49 34.2 30.13 36.54 27.6C38.89 25.07 41.23 22.37 43.58 19.67C47.96 14.62 52.35 9.55 56.74 5.88C58.93 4.04 61.12 2.55 63.32 1.54C65.51 0.53 67.7 0 69.9 0C72.09 0 74.28 0.53 76.47 1.53C78.66 2.54 80.85 4.03 83.04 5.86C87.42 9.53 91.8 14.58 96.18 19.63C94.43 17.99 92.68 16.63 90.93 15.7C89.19 14.78 87.44 14.29 85.69 14.29C82.62 14.29 79.55 15.86 76.48 18.48C73.41 21.11 70.34 24.73 67.26 28.34C65.11 30.88 62.95 33.4 60.79 35.67C58.63 37.94 56.47 39.95 54.31 41.63C49.99 44.97 45.67 46.91 41.36 48.03C37.04 49.14 32.72 49.51 28.4 49.72C24.08 49.92 19.76 49.95 15.45 49.98C10.3 50 5.15 50 0 50Z"/><path fill="#027DBF" d="M69.9 25.27C70.77 26.27 71.65 27.31 72.53 28.34C74.69 30.88 76.85 33.4 79.01 35.67C81.17 37.94 83.32 39.95 85.48 41.63C89.8 44.97 94.12 46.91 98.44 48.03C102.76 49.14 107.07 49.51 111.39 49.72C115.71 49.92 120.03 49.95 124.35 49.98C129.5 50 134.65 50 139.79 50C139.63 50 139.47 49.94 139.31 49.91C139.15 49.87 138.99 49.84 138.83 49.8C138.51 49.73 138.18 49.66 137.86 49.58C137.22 49.43 136.58 49.25 135.93 49.06C134.65 48.68 133.36 48.22 132.07 47.7C129.5 46.65 126.92 45.31 124.35 44.12C121.21 42.67 118.08 40.8 114.95 38.44C111.81 36.09 108.68 33.24 105.54 30.02C105.07 29.46 104.59 28.9 104.11 28.34C101.04 24.73 97.97 21.11 94.9 18.48C91.83 15.86 88.76 14.29 85.69 14.29C83.06 14.29 80.42 15.42 77.79 17.42C75.16 19.41 72.53 22.24 69.9 25.27Z"/></g></g></g></g><path fill="#111111" d="M11.73 149.65Q7.68 149.65 4.85 148.18Q2.02 146.71 0 144.23L3.59 140.87Q5.29 142.94 7.33 144Q9.38 145.05 12 145.05Q15.08 145.05 16.65 143.67Q18.21 142.29 18.21 139.95Q18.21 138.06 17.11 136.96Q16 135.86 13.2 135.3L10.35 134.8Q5.66 133.92 3.31 131.72Q0.97 129.51 0.97 125.65Q0.97 123.53 1.77 121.81Q2.57 120.08 4.02 118.91Q5.47 117.74 7.54 117.09Q9.61 116.45 12.19 116.45Q15.82 116.45 18.49 117.71Q21.15 118.98 23.04 121.37L19.41 124.59Q18.17 122.98 16.37 122.01Q14.58 121.05 11.91 121.05Q9.15 121.05 7.63 122.15Q6.12 123.25 6.12 125.37Q6.12 127.39 7.36 128.38Q8.6 129.37 11.22 129.88L14.07 130.47Q18.9 131.39 21.13 133.6Q23.36 135.81 23.36 139.67Q23.36 141.93 22.58 143.77Q21.8 145.6 20.3 146.92Q18.81 148.23 16.65 148.94Q14.49 149.65 11.73 149.65M50.17 149.1L29.62 149.1L29.62 117L50.17 117L50.17 121.6L34.81 121.6L34.81 130.52L48.75 130.52L48.75 135.12L34.81 135.12L34.81 144.5L50.17 144.5M82.37 149.1L76.94 149.1L74.04 140.41L62.04 140.41L59.23 149.1L53.94 149.1L64.89 117L71.42 117L82.37 149.1M72.75 135.95L68.15 121.78L67.92 121.78L63.28 135.95M119.66 121.6L110.1 121.6L110.1 149.1L104.9 149.1L104.9 121.6L95.33 121.6L95.33 117L119.66 117M144.45 149.1L144.45 135.12L129.92 135.12L129.92 149.1L124.72 149.1L124.72 117L129.92 117L129.92 130.52L144.45 130.52L144.45 117L149.65 117L149.65 149.1M162.75 136.13L162.75 149.1L157.56 149.1L157.56 117L171.4 117Q175.72 117 178.21 119.6Q180.69 122.2 180.69 126.66Q180.69 130.11 179.1 132.38Q177.52 134.66 174.43 135.58L181.38 149.1L175.58 149.1L169.15 136.13L162.75 136.13M162.75 131.76L171.03 131.76Q173.01 131.76 174.11 130.73Q175.22 129.69 175.22 127.76L175.22 125.55Q175.22 123.62 174.11 122.59Q173.01 121.55 171.03 121.55L162.75 121.55M200.1 149.65Q196.97 149.65 194.42 148.57Q191.86 147.49 190.05 145.4Q188.23 143.31 187.24 140.2Q186.25 137.1 186.25 133.05Q186.25 129 187.24 125.9Q188.23 122.79 190.05 120.7Q191.86 118.61 194.42 117.53Q196.97 116.45 200.1 116.45Q203.22 116.45 205.78 117.53Q208.33 118.61 210.14 120.7Q211.96 122.79 212.95 125.9Q213.94 129 213.94 133.05Q213.94 137.1 212.95 140.2Q211.96 143.31 210.14 145.4Q208.33 147.49 205.78 148.57Q203.22 149.65 200.1 149.65M200.1 145.01Q201.94 145.01 203.48 144.36Q205.02 143.72 206.1 142.5Q207.18 141.28 207.78 139.53Q208.37 137.79 208.37 135.58L208.37 130.52Q208.37 128.31 207.78 126.57Q207.18 124.82 206.1 123.6Q205.02 122.38 203.48 121.74Q201.94 121.09 200.1 121.09Q198.21 121.09 196.69 121.74Q195.17 122.38 194.09 123.6Q193.01 124.82 192.42 126.57Q191.82 128.31 191.82 130.52L191.82 135.58Q191.82 137.79 192.42 139.53Q193.01 141.28 194.09 142.5Q195.17 143.72 196.69 144.36Q198.21 145.01 200.1 145.01M220.24 117L225.34 117L225.34 136.78Q225.34 140.87 226.91 142.94Q228.47 145.01 232.24 145.01Q236.01 145.01 237.58 142.94Q239.14 140.87 239.14 136.78L239.14 117L244.24 117L244.24 135.95Q244.24 139.49 243.6 142.06Q242.96 144.64 241.53 146.32Q240.11 148 237.83 148.82Q235.55 149.65 232.24 149.65Q228.93 149.65 226.65 148.82Q224.38 148 222.95 146.32Q221.53 144.64 220.88 142.06Q220.24 139.49 220.24 135.95M272.62 149.1L272.62 144.23L272.44 144.23Q271.93 146.57 269.7 148.11Q267.47 149.65 263.79 149.65Q260.94 149.65 258.5 148.57Q256.06 147.49 254.29 145.4Q252.52 143.31 251.53 140.2Q250.55 137.1 250.55 133.05Q250.55 129.05 251.56 125.94Q252.57 122.84 254.41 120.73Q256.25 118.61 258.82 117.53Q261.4 116.45 264.57 116.45Q268.89 116.45 271.88 118.36Q274.87 120.27 276.53 123.67L272.3 126.15Q271.38 123.9 269.45 122.5Q267.51 121.09 264.57 121.09Q260.75 121.09 258.43 123.53Q256.11 125.97 256.11 130.43L256.11 135.67Q256.11 140.13 258.43 142.57Q260.75 145.01 264.57 145.01Q266.09 145.01 267.47 144.62Q268.85 144.23 269.88 143.47Q270.92 142.71 271.54 141.58Q272.16 140.45 272.16 138.94L272.16 136.45L265.54 136.45L265.54 131.99L277.17 131.99L277.17 149.1M304.12 149.1L304.12 135.12L289.59 135.12L289.59 149.1L284.39 149.1L284.39 117L289.59 117L289.59 130.52L304.12 130.52L304.12 117L309.32 117L309.32 149.1"/><path fill="#111111" d="M8.79 188.39Q5.76 188.39 3.64 187.29Q1.52 186.19 0 184.32L2.69 181.81Q3.97 183.36 5.5 184.15Q7.04 184.94 9 184.94Q11.31 184.94 12.49 183.91Q13.66 182.88 13.66 181.12Q13.66 179.7 12.83 178.86Q12 178.05 9.9 177.63L7.76 177.25Q4.24 176.6 2.48 174.94Q0.72 173.29 0.72 170.39Q0.72 168.8 1.33 167.51Q1.93 166.22 3.02 165.34Q4.1 164.46 5.66 163.97Q7.21 163.49 9.14 163.49Q11.86 163.49 13.87 164.44Q15.87 165.39 17.28 167.18L14.56 169.6Q13.62 168.39 12.28 167.66Q10.93 166.94 8.93 166.94Q6.86 166.94 5.73 167.77Q4.59 168.6 4.59 170.18Q4.59 171.7 5.52 172.44Q6.45 173.18 8.42 173.56L10.55 174.01Q14.18 174.7 15.85 176.36Q17.52 178.01 17.52 180.91Q17.52 182.6 16.93 183.98Q16.35 185.36 15.23 186.34Q14.11 187.32 12.49 187.86Q10.86 188.39 8.79 188.39M59.34 188.39Q54.61 188.39 51.92 185.2Q49.23 182.01 49.23 175.94Q49.23 172.91 49.92 170.6Q50.61 168.29 51.92 166.7Q53.23 165.11 55.11 164.3Q56.99 163.49 59.34 163.49Q62.48 163.49 64.6 164.86Q66.72 166.25 67.92 168.94L64.65 170.73Q64.03 169.01 62.73 167.99Q61.44 166.97 59.34 166.97Q56.54 166.97 54.96 168.86Q53.37 170.77 53.37 174.11L53.37 177.77Q53.37 181.12 54.96 183.01Q56.54 184.91 59.34 184.91Q61.51 184.91 62.87 183.79Q64.23 182.67 64.89 180.91L68.03 182.81Q66.82 185.43 64.65 186.91Q62.48 188.39 59.34 188.39M109.71 187.98L99.22 187.98L99.22 184.81L102.5 184.81L102.5 167.08L99.22 167.08L99.22 163.9L109.71 163.9L109.71 167.08L106.39 167.08L106.39 184.81L109.71 184.81M158.11 187.98L142.69 187.98L142.69 163.9L158.11 163.9L158.11 167.35L146.59 167.35L146.59 174.05L157.04 174.05L157.04 177.49L146.59 177.49L146.59 184.53L158.11 184.53M205.58 187.98L197.72 174.67L195.06 169.56L194.96 169.56L194.96 187.98L191.23 187.98L191.23 163.9L195.58 163.9L203.44 177.22L206.1 182.32L206.2 182.32L206.2 163.9L209.93 163.9L209.93 187.98M252.98 188.39Q248.26 188.39 245.57 185.2Q242.88 182.01 242.88 175.94Q242.88 172.91 243.57 170.6Q244.26 168.29 245.57 166.7Q246.88 165.11 248.76 164.3Q250.64 163.49 252.98 163.49Q256.12 163.49 258.24 164.86Q260.36 166.25 261.57 168.94L258.29 170.73Q257.67 169.01 256.38 167.99Q255.09 166.97 252.98 166.97Q250.19 166.97 248.6 168.86Q247.02 170.77 247.02 174.11L247.02 177.77Q247.02 181.12 248.6 183.01Q250.19 184.91 252.98 184.91Q255.16 184.91 256.52 183.79Q257.88 182.67 258.54 180.91L261.67 182.81Q260.47 185.43 258.29 186.91Q256.12 188.39 252.98 188.39M309.32 187.98L293.9 187.98L293.9 163.9L309.32 163.9L309.32 167.35L297.8 167.35L297.8 174.05L308.25 174.05L308.25 177.49L297.8 177.49L297.8 184.53L309.32 184.53"/></svg>

