<svg xmlns="http://www.w3.org/2000/svg" viewBox="0 0 309.32 187.98"><g transform="translate(85.74 0)"><g><g><path fill="#54B5CB" stroke="white" stroke-width="4.41" stroke-linejoin="round" d="M2.46 50C2.61 50 2.76 49.94 2.91 49.91C3.07 49.88 3.22 49.85 3.37 49.81C3.68 49.75 3.99 49.68 4.29 49.6C4.9 49.45 5.52 49.29 6.13 49.11C7.35 48.74 8.58 48.31 9.8 47.81C12.25 46.82 14.7 45.54 17.14 44.41C21.6 42.35 26.06 39.35 30.52 35.35C32.75 33.35 34.98 31.1 37.21 28.7C39.43 26.29 41.66 23.73 43.89 21.16C48.06 16.36 52.24 11.54 56.41 8.04C58.49 6.29 60.58 4.88 62.66 3.92C64.75 2.96 66.83 2.46 68.92 2.46C71 2.46 73.08 2.96 75.17 3.91C77.25 4.87 79.33 6.28 81.42 8.03C85.58 11.52 89.75 16.32 93.91 21.12C92.25 19.56 90.59 18.27 88.92 17.39C87.26 16.51 85.6 16.04 83.94 16.04C81.02 16.04 78.1 17.53 75.18 20.03C72.26 22.53 69.34 25.97 66.42 29.4C64.36 31.82 62.31 34.22 60.26 36.38C58.2 38.53 56.15 40.45 54.1 42.04C49.99 45.22 45.89 47.06 41.78 48.12C37.67 49.18 33.57 49.53 29.46 49.73C25.36 49.93 21.25 49.96 17.14 49.98C12.25 50 7.35 50 2.46 50Z"/><path fill="#027DBF" stroke="white" stroke-width="4.41" stroke-linejoin="round" d="M68.92 26.48C69.75 27.44 70.59 28.42 71.42 29.4C73.48 31.82 75.53 34.22 77.58 36.38C79.63 38.53 81.69 40.45 83.74 42.04C87.85 45.22 91.95 47.06 96.06 48.12C100.17 49.18 104.27 49.53 108.38 49.73C112.48 49.93 116.59 49.96 120.7 49.98C125.59 50 130.49 50 135.38 50C135.23 50 135.08 49.94 134.92 49.91C134.77 49.88 134.62 49.85 134.47 49.81C134.16 49.75 133.85 49.68 133.55 49.6C132.94 49.45 132.32 49.29 131.71 49.11C130.49 48.74 129.26 48.31 128.04 47.81C125.59 46.82 123.14 45.54 120.7 44.41C117.72 43.03 114.74 41.25 111.76 39.01C108.78 36.77 105.8 34.06 102.82 31C102.36 30.47 101.91 29.94 101.45 29.4C98.53 25.97 95.61 22.53 92.7 20.03C89.78 17.53 86.86 16.04 83.94 16.04C81.43 16.04 78.93 17.12 76.43 19.02C73.92 20.92 71.42 23.6 68.92 26.48Z"/></g><g transform="rotate(180 68.92 50)"><path fill="#54B5CB" stroke="white" stroke-width="4.41" stroke-linejoin="round" d="M2.46 50C2.61 50 2.76 49.94 2.91 49.91C3.07 49.88 3.22 49.85 3.37 49.81C3.68 49.75 3.99 49.68 4.29 49.6C4.9 49.45 5.52 49.29 6.13 49.11C7.35 48.74 8.58 48.31 9.8 47.81C12.25 46.82 14.7 45.54 17.14 44.41C21.6 42.35 26.06 39.35 30.52 35.35C32.75 33.35 34.98 31.1 37.21 28.7C39.43 26.29 41.66 23.73 43.89 21.16C48.06 16.36 52.24 11.54 56.41 8.04C58.49 6.29 60.58 4.88 62.66 3.92C64.75 2.96 66.83 2.46 68.92 2.46C71 2.46 73.08 2.96 75.17 3.91C77.25 4.87 79.33 6.28 81.42 8.03C85.58 11.52 89.75 16.32 93.91 21.12C92.25 19.56 90.59 18.27 88.92 17.39C87.26 16.51 85.6 16.04 83.94 16.04C81.02 16.04 78.1 17.53 75.18 20.03C72.26 22.53 69.34 25.97 66.42 29.4C64.36 31.82 62.31 34.22 60.26 36.38C58.2 38.53 56.15 40.45 54.1 42.04C49.99 45.22 45.89 47.06 41.78 48.12C37.67 49.18 33.57 49.53 29.46 49.73C25.36 49.93 21.25 49.96 17.14 49.98C12.25 50 7.35 50 2.46 50Z"/><path fill="#027DBF" stroke="white" stroke-width="4.41" stroke-linejoin="round" d="M68.92 26.48C69.75 27.44 70.59 28.42 71.42 29.4C73.48 31.82 75.53 34.22 77.58 36.38C79.63 38.53 81.69 40.45 83.74 42.04C87.85 45.22 91.95 47.06 96.06 48.12C100.17 49.18 104.27 49.53 108.38 49.73C112.48 49.93 116.59 49.96 120.7 49.98C125.59 50 130.49 50 135.38 50C135.23 50 135.08 49.94 134.92 49.91C134.77 49.88 134.62 49.85 134.47 49.81C134.16 49.75 133.85 49.68 133.55 49.6C132.94 49.45 132.32 49.29 131.71 49.11C130.49 48.74 129.26 48.31 128.04 47.81C125.59 46.82 123.14 45.54 120.7 44.41C117.72 43.03 114.74 41.25 111.76 39.01C108.78 36.77 105.8 34.06 102.82 31C102.36 30.47 101.91 29.94 101.45 29.4C98.53 25.97 95.61 22.53 92.7 20.03C89.78 17.53 86.86 16.04 83.94 16.04C81.43 16.04 78.93 17.12 76.43 19.02C73.92 20.92 71.42 23.6 68.92 26.48Z"/></g></g></g><path fill="#111111" d="M11.73 149.65Q7.68 149.65 4.85 148.18Q2.02 146.71 0 144.23L3.59 140.87Q5.29 142.94 7.33 144Q9.38 145.05 12 145.05Q15.08 145.05 16.65 143.67Q18.21 142.29 18.21 139.95Q18.21 138.06 17.11 136.96Q16 135.86 13.2 135.3L10.35 134.8Q5.66 133.92 3.31 131.72Q0.97 129.51 0.97 125.65Q0.97 123.53 1.77 121.81Q2.57 120.08 4.02 118.91Q5.47 117.74 7.54 117.09Q9.61 116.45 12.19 116.45Q15.82 116.45 18.49 117.71Q21.15 118.98 23.04 121.37L19.41 124.59Q18.17 122.98 16.37 122.01Q14.58 121.05 11.91 121.05Q9.15 121.05 7.63 122.15Q6.12 123.25 6.12 125.37Q6.12 127.39 7.36 128.38Q8.6 129.37 11.22 129.88L14.07 130.47Q18.9 131.39 21.13 133.6Q23.36 135.81 23.36 139.67Q23.36 141.93 22.58 143.77Q21.8 145.6 20.3 146.92Q18.81 148.23 16.65 148.94Q14.49 149.65 11.73 149.65M50.17 149.1L29.62 149.1L29.62 117L50.17 117L50.17 121.6L34.81 121.6L34.81 130.52L48.75 130.52L48.75 135.12L34.81 135.12L34.81 144.5L50.17 144.5M82.37 149.1L76.94 149.1L74.04 140.41L62.04 140.41L59.23 149.1L53.94 149.1L64.89 117L71.42 117L82.37 149.1M72.75 135.95L68.15 121.78L67.92 121.78L63.28 135.95M119.66 121.6L110.1 121.6L110.1 149.1L104.9 149.1L104.9 121.6L95.33 121.6L95.33 117L119.66 117M144.45 149.1L144.45 135.12L129.92 135.12L129.92 149.1L124.72 149.1L124.72 117L129.92 117L129.92 130.52L144.45 130.52L144.45 117L149.65 117L149.65 149.1M162.75 136.13L162.75 149.1L157.56 149.1L157.56 117L171.4 117Q175.72 117 178.21 119.6Q180.69 122.2 180.69 126.66Q180.69 130.11 179.1 132.38Q177.52 134.66 174.43 135.58L181.38 149.1L175.58 149.1L169.15 136.13L162.75 136.13M162.75 131.76L171.03 131.76Q173.01 131.76 174.11 130.73Q175.22 129.69 175.22 127.76L175.22 125.55Q175.22 123.62 174.11 122.59Q173.01 121.55 171.03 121.55L162.75 121.55M200.1 149.65Q196.97 149.65 194.42 148.57Q191.86 147.49 190.05 145.4Q188.23 143.31 187.24 140.2Q186.25 137.1 186.25 133.05Q186.25 129 187.24 125.9Q188.23 122.79 190.05 120.7Q191.86 118.61 194.42 117.53Q196.97 116.45 200.1 116.45Q203.22 116.45 205.78 117.53Q208.33 118.61 210.14 120.7Q211.96 122.79 212.95 125.9Q213.94 129 213.94 133.05Q213.94 137.1 212.95 140.2Q211.96 143.31 210.14 145.4Q208.33 147.49 205.78 148.57Q203.22 149.65 200.1 149.65M200.1 145.01Q201.94 145.01 203.48 144.36Q205.02 143.72 206.1 142.5Q207.18 141.28 207.78 139.53Q208.37 137.79 208.37 135.58L208.37 130.52Q208.37 128.31 207.78 126.57Q207.18 124.82 206.1 123.6Q205.02 122.38 203.48 121.74Q201.94 121.09 200.1 121.09Q198.21 121.09 196.69 121.74Q195.17 122.38 194.09 123.6Q193.01 124.82 192.42 126.57Q191.82 128.31 191.82 130.52L191.82 135.58Q191.82 137.79 192.42 139.53Q193.01 141.28 194.09 142.5Q195.17 143.72 196.69 144.36Q198.21 145.01 200.1 145.01M220.24 117L225.34 117L225.34 136.78Q225.34 140.87 226.91 142.94Q228.47 145.01 232.24 145.01Q236.01 145.01 237.58 142.94Q239.14 140.87 239.14 136.78L239.14 117L244.24 117L244.24 135.95Q244.24 139.49 243.6 142.06Q242.96 144.64 241.53 146.32Q240.11 148 237.83 148.82Q235.55 149.65 232.24 149.65Q228.93 149.65 226.65 148.82Q224.38 148 222.95 146.32Q221.53 144.64 220.88 142.06Q220.24 139.49 220.24 135.95M272.62 149.1L272.62 144.23L272.44 144.23Q271.93 146.57 269.7 148.11Q267.47 149.65 263.79 149.65Q260.94 149.65 258.5 148.57Q256.06 147.49 254.29 145.4Q252.52 143.31 251.53 140.2Q250.55 137.1 250.55 133.05Q250.55 129.05 251.56 125.94Q252.57 122.84 254.41 120.73Q256.25 118.61 258.82 117.53Q261.4 116.45 264.57 116.45Q268.89 116.45 271.88 118.36Q274.87 120.27 276.53 123.67L272.3 126.15Q271.38 123.9 269.45 122.5Q267.51 121.09 264.57 121.09Q260.75 121.09 258.43 123.53Q256.11 125.97 256.11 130.43L256.11 135.67Q256.11 140.13 258.43 142.57Q260.75 145.01 264.57 145.01Q266.09 145.01 267.47 144.62Q268.85 144.23 269.88 143.47Q270.92 142.71 271.54 141.58Q272.16 140.45 272.16 138.94L272.16 136.45L265.54 136.45L265.54 131.99L277.17 131.99L277.17 149.1M304.12 149.1L304.12 135.12L289.59 135.12L289.59 149.1L284.39 149.1L284.39 117L289.59 117L289.59 130.52L304.12 130.52L304.12 117L309.32 117L309.32 149.1"/><path fill="#111111" d="M8.79 188.39Q5.76 188.39 3.64 187.29Q1.52 186.19 0 184.32L2.69 181.81Q3.97 183.36 5.5 184.15Q7.04 184.94 9 184.94Q11.31 184.94 12.49 183.91Q13.66 182.88 13.66 181.12Q13.66 179.7 12.83 178.86Q12 178.05 9.9 177.63L7.76 177.25Q4.24 176.6 2.48 174.94Q0.72 173.29 0.72 170.39Q0.72 168.8 1.33 167.51Q1.93 166.22 3.02 165.34Q4.1 164.46 5.66 163.97Q7.21 163.49 9.14 163.49Q11.86 163.49 13.87 164.44Q15.87 165.39 17.28 167.18L14.56 169.6Q13.62 168.39 12.28 167.66Q10.93 166.94 8.93 166.94Q6.86 166.94 5.73 167.77Q4.59 168.6 4.59 170.18Q4.59 171.7 5.52 172.44Q6.45 173.18 8.42 173.56L10.55 174.01Q14.18 174.7 15.85 176.36Q17.52 178.01 17.52 180.91Q17.52 182.6 16.93 183.98Q16.35 185.36 15.23 186.34Q14.11 187.32 12.49 187.86Q10.86 188.39 8.79 188.39M59.34 188.39Q54.61 188.39 51.92 185.2Q49.23 182.01 49.23 175.94Q49.23 172.91 49.92 170.6Q50.61 168.29 51.92 166.7Q53.23 165.11 55.11 164.3Q56.99 163.49 59.34 163.49Q62.48 163.49 64.6 164.86Q66.72 166.25 67.92 168.94L64.65 170.73Q64.03 169.01 62.73 167.99Q61.44 166.97 59.34 166.97Q56.54 166.97 54.96 168.86Q53.37 170.77 53.37 174.11L53.37 177.77Q53.37 181.12 54.96 183.01Q56.54 184.91 59.34 184.91Q61.51 184.91 62.87 183.79Q64.23 182.67 64.89 180.91L68.03 182.81Q66.82 185.43 64.65 186.91Q62.48 188.39 59.34 188.39M109.71 187.98L99.22 187.98L99.22 184.81L102.5 184.81L102.5 167.08L99.22 167.08L99.22 163.9L109.71 163.9L109.71 167.08L106.39 167.08L106.39 184.81L109.71 184.81M158.11 187.98L142.69 187.98L142.69 163.9L158.11 163.9L158.11 167.35L146.59 167.35L146.59 174.05L157.04 174.05L157.04 177.49L146.59 177.49L146.59 184.53L158.11 184.53M205.58 187.98L197.72 174.67L195.06 169.56L194.96 169.56L194.96 187.98L191.23 187.98L191.23 163.9L195.58 163.9L203.44 177.22L206.1 182.32L206.2 182.32L206.2 163.9L209.93 163.9L209.93 187.98M252.98 188.39Q248.26 188.39 245.57 185.2Q242.88 182.01 242.88 175.94Q242.88 172.91 243.57 170.6Q244.26 168.29 245.57 166.7Q246.88 165.11 248.76 164.3Q250.64 163.49 252.98 163.49Q256.12 163.49 258.24 164.86Q260.36 166.25 261.57 168.94L258.29 170.73Q257.67 169.01 256.38 167.99Q255.09 166.97 252.98 166.97Q250.19 166.97 248.6 168.86Q247.02 170.77 247.02 174.11L247.02 177.77Q247.02 181.12 248.6 183.01Q250.19 184.91 252.98 184.91Q255.16 184.91 256.52 183.79Q257.88 182.67 258.54 180.91L261.67 182.81Q260.47 185.43 258.29 186.91Q256.12 188.39 252.98 188.39M309.32 187.98L293.9 187.98L293.9 163.9L309.32 163.9L309.32 167.35L297.8 167.35L297.8 174.05L308.25 174.05L308.25 177.49L297.8 177.49L297.8 184.53L309.32 184.53"/></svg>

