<svg xmlns="http://www.w3.org/2000/svg" viewBox="0 0 464.16 100"><g><g><path fill="#99D9EA" stroke="white" stroke-width="4.41" stroke-linejoin="round" d="M2.46 50C2.61 50 2.76 49.94 2.91 49.91C3.07 49.88 3.22 49.85 3.37 49.81C3.68 49.75 3.99 49.68 4.29 49.6C4.9 49.45 5.52 49.29 6.13 49.11C7.35 48.74 8.58 48.31 9.8 47.81C12.25 46.82 14.7 45.54 17.14 44.41C21.6 42.35 26.06 39.35 30.52 35.35C32.75 33.35 34.98 31.1 37.21 28.7C39.43 26.29 41.66 23.73 43.89 21.16C48.06 16.36 52.24 11.54 56.41 8.04C58.49 6.29 60.58 4.88 62.66 3.92C64.75 2.96 66.83 2.46 68.92 2.46C71 2.46 73.08 2.96 75.17 3.91C77.25 4.87 79.33 6.28 81.42 8.03C85.58 11.52 89.75 16.32 93.91 21.12C92.25 19.56 90.59 18.27 88.92 17.39C87.26 16.51 85.6 16.04 83.94 16.04C81.02 16.04 78.1 17.53 75.18 20.03C72.26 22.53 69.34 25.97 66.42 29.4C64.36 31.82 62.31 34.22 60.26 36.38C58.2 38.53 56.15 40.45 54.1 42.04C49.99 45.22 45.89 47.06 41.78 48.12C37.67 49.18 33.57 49.53 29.46 49.73C25.36 49.93 21.25 49.96 17.14 49.98C12.25 50 7.35 50 2.46 50Z"/><path fill="#00A2E8" stroke="white" stroke-width="4.41" stroke-linejoin="round" d="M68.92 26.48C69.75 27.44 70.59 28.42 71.42 29.4C73.48 31.82 75.53 34.22 77.58 36.38C79.63 38.53 81.69 40.45 83.74 42.04C87.85 45.22 91.95 47.06 96.06 48.12C100.17 49.18 104.27 49.53 108.38 49.73C112.48 49.93 116.59 49.96 120.7 49.98C125.59 50 130.49 50 135.38 50C135.23 50 135.08 49.94 134.92 49.91C134.77 49.88 134.62 49.85 134.47 49.81C134.16 49.75 133.85 49.68 133.55 49.6C132.94 49.45 132.32 49.29 131.71 49.11C130.49 48.74 129.26 48.31 128.04 47.81C125.59 46.82 123.14 45.54 120.7 44.41C117.72 43.03 114.74 41.25 111.76 39.01C108.78 36.77 105.8 34.06 102.82 31C102.36 30.47 101.91 29.94 101.45 29.4C98.53 25.97 95.61 22.53 92.7 20.03C89.78 17.53 86.86 16.04 83.94 16.04C81.43 16.04 78.93 17.12 76.43 19.02C73.92 20.92 71.42 23.6 68.92 26.48Z"/></g><g transform="rotate(180 68.92 50)"><path fill="#99D9EA" stroke="white" stroke-width="4.41" stroke-linejoin="round" d="M2.46 50C2.61 50 2.76 49.94 2.91 49.91C3.07 49.88 3.22 49.85 3.37 49.81C3.68 49.75 3.99 49.68 4.29 49.6C4.9 49.45 5.52 49.29 6.13 49.11C7.35 48.74 8.58 48.31 9.8 47.81C12.25 46.82 14.7 45.54 17.14 44.41C21.6 42.35 26.06 39.35 30.52 35.35C32.75 33.35 34.98 31.1 37.21 28.7C39.43 26.29 41.66 23.73 43.89 21.16C48.06 16.36 52.24 11.54 56.41 8.04C58.49 6.29 60.58 4.88 62.66 3.92C64.75 2.96 66.83 2.46 68.92 2.46C71 2.46 73.08 2.96 75.17 3.91C77.25 4.87 79.33 6.28 81.42 8.03C85.58 11.52 89.75 16.32 93.91 21.12C92.25 19.56 90.59 18.27 88.92 17.39C87.26 16.51 85.6 16.04 83.94 16.04C81.02 16.04 78.1 17.53 75.18 20.03C72.26 22.53 69.34 25.97 66.42 29.4C64.36 31.82 62.31 34.22 60.26 36.38C58.2 38.53 56.15 40.45 54.1 42.04C49.99 45.22 45.89 47.06 41.78 48.12C37.67 49.18 33.57 49.53 29.46 49.73C25.36 49.93 21.25 49.96 17.14 49.98C12.25 50 7.35 50 2.46 50Z"/><path fill="#00A2E8" stroke="white" stroke-width="4.41" stroke-linejoin="round" d="M68.92 26.48C69.75 27.44 70.59 28.42 71.42 29.4C73.48 31.82 75.53 34.22 77.58 36.38C79.63 38.53 81.69 40.45 83.74 42.04C87.85 45.22 91.95 47.06 96.06 48.12C100.17 49.18 104.27 49.53 108.38 49.73C112.48 49.93 116.59 49.96 120.7 49.98C125.59 50 130.49 50 135.38 50C135.23 50 135.08 49.94 134.92 49.91C134.77 49.88 134.62 49.85 134.47 49.81C134.16 49.75 133.85 49.68 133.55 49.6C132.94 49.45 132.32 49.29 131.71 49.11C130.49 48.74 129.26 48.31 128.04 47.81C125.59 46.82 123.14 45.54 120.7 44.41C117.72 43.03 114.74 41.25 111.76 39.01C108.78 36.77 105.8 34.06 102.82 31C102.36 30.47 101.91 29.94 101.45 29.4C98.53 25.97 95.61 22.53 92.7 20.03C89.78 17.53 86.86 16.04 83.94 16.04C81.43 16.04 78.93 17.12 76.43 19.02C73.92 20.92 71.42 23.6 68.92 26.48Z"/></g></g><path fill="#FFFFFF" d="M166.57 47.16Q162.52 47.16 159.69 45.69Q156.86 44.22 154.84 41.74L158.43 38.38Q160.13 40.45 162.17 41.51Q164.22 42.56 166.84 42.56Q169.92 42.56 171.49 41.18Q173.05 39.8 173.05 37.46Q173.05 35.57 171.95 34.47Q170.84 33.37 168.04 32.81L165.19 32.31Q160.5 31.43 158.15 29.23Q155.81 27.02 155.81 23.16Q155.81 21.04 156.61 19.32Q157.41 17.59 158.86 16.42Q160.31 15.25 162.38 14.6Q164.45 13.96 167.03 13.96Q170.66 13.96 173.33 15.22Q175.99 16.49 177.88 18.88L174.25 22.1Q173.01 20.49 171.21 19.52Q169.42 18.56 166.75 18.56Q163.99 18.56 162.47 19.66Q160.96 20.76 160.96 22.88Q160.96 24.9 162.2 25.89Q163.44 26.88 166.06 27.39L168.91 27.98Q173.74 28.9 175.97 31.11Q178.2 33.32 178.2 37.18Q178.2 39.44 177.42 41.28Q176.64 43.11 175.14 44.43Q173.65 45.74 171.49 46.45Q169.33 47.16 166.57 47.16M205.01 46.61L184.46 46.61L184.46 14.51L205.01 14.51L205.01 19.11L189.65 19.11L189.65 28.03L203.59 28.03L203.59 32.63L189.65 32.63L189.65 42.01L205.01 42.01M237.21 46.61L231.78 46.61L228.88 37.92L216.88 37.92L214.07 46.61L208.78 46.61L219.73 14.51L226.26 14.51L237.21 46.61M227.59 33.46L222.99 19.29L222.76 19.29L218.12 33.46M274.5 19.11L264.94 19.11L264.94 46.61L259.74 46.61L259.74 19.11L250.17 19.11L250.17 14.51L274.5 14.51M299.29 46.61L299.29 32.63L284.76 32.63L284.76 46.61L279.56 46.61L279.56 14.51L284.76 14.51L284.76 28.03L299.29 28.03L299.29 14.51L304.49 14.51L304.49 46.61M317.59 33.64L317.59 46.61L312.4 46.61L312.4 14.51L326.24 14.51Q330.56 14.51 333.05 17.11Q335.53 19.71 335.53 24.17Q335.53 27.62 333.94 29.89Q332.36 32.17 329.27 33.09L336.22 46.61L330.42 46.61L323.99 33.64L317.59 33.64M317.59 29.27L325.87 29.27Q327.85 29.27 328.95 28.24Q330.06 27.2 330.06 25.27L330.06 23.06Q330.06 21.13 328.95 20.1Q327.85 19.06 325.87 19.06L317.59 19.06M354.94 47.16Q351.81 47.16 349.26 46.08Q346.7 45 344.89 42.91Q343.07 40.82 342.08 37.71Q341.09 34.61 341.09 30.56Q341.09 26.51 342.08 23.41Q343.07 20.3 344.89 18.21Q346.7 16.12 349.26 15.04Q351.81 13.96 354.94 13.96Q358.06 13.96 360.62 15.04Q363.17 16.12 364.98 18.21Q366.8 20.3 367.79 23.41Q368.78 26.51 368.78 30.56Q368.78 34.61 367.79 37.71Q366.8 40.82 364.98 42.91Q363.17 45 360.62 46.08Q358.06 47.16 354.94 47.16M354.94 42.52Q356.78 42.52 358.32 41.87Q359.86 41.23 360.94 40.01Q362.02 38.79 362.62 37.04Q363.21 35.3 363.21 33.09L363.21 28.03Q363.21 25.82 362.62 24.08Q362.02 22.33 360.94 21.11Q359.86 19.89 358.32 19.25Q356.78 18.6 354.94 18.6Q353.05 18.6 351.53 19.25Q350.01 19.89 348.93 21.11Q347.85 22.33 347.26 24.08Q346.66 25.82 346.66 28.03L346.66 33.09Q346.66 35.3 347.26 37.04Q347.85 38.79 348.93 40.01Q350.01 41.23 351.53 41.87Q353.05 42.52 354.94 42.52M375.08 14.51L380.18 14.51L380.18 34.29Q380.18 38.38 381.75 40.45Q383.31 42.52 387.08 42.52Q390.85 42.52 392.42 40.45Q393.98 38.38 393.98 34.29L393.98 14.51L399.08 14.51L399.08 33.46Q399.08 37 398.44 39.57Q397.8 42.15 396.37 43.83Q394.95 45.51 392.67 46.33Q390.39 47.16 387.08 47.16Q383.77 47.16 381.49 46.33Q379.22 45.51 377.79 43.83Q376.37 42.15 375.72 39.57Q375.08 37 375.08 33.46M427.46 46.61L427.46 41.74L427.28 41.74Q426.77 44.08 424.54 45.62Q422.31 47.16 418.63 47.16Q415.78 47.16 413.34 46.08Q410.9 45 409.13 42.91Q407.36 40.82 406.37 37.71Q405.39 34.61 405.39 30.56Q405.39 26.56 406.4 23.45Q407.41 20.35 409.25 18.24Q411.09 16.12 413.66 15.04Q416.24 13.96 419.41 13.96Q423.73 13.96 426.72 15.87Q429.71 17.78 431.37 21.18L427.14 23.66Q426.22 21.41 424.29 20.01Q422.35 18.6 419.41 18.6Q415.59 18.6 413.27 21.04Q410.95 23.48 410.95 27.94L410.95 33.18Q410.95 37.64 413.27 40.08Q415.59 42.52 419.41 42.52Q420.93 42.52 422.31 42.13Q423.69 41.74 424.72 40.98Q425.76 40.22 426.38 39.09Q427 37.96 427 36.45L427 33.96L420.38 33.96L420.38 29.5L432.01 29.5L432.01 46.61M458.96 46.61L458.96 32.63L444.43 32.63L444.43 46.61L439.23 46.61L439.23 14.51L444.43 14.51L444.43 28.03L458.96 28.03L458.96 14.51L464.16 14.51L464.16 46.61"/><path fill="#FFFFFF" d="M163.63 85.9Q160.6 85.9 158.48 84.8Q156.36 83.7 154.84 81.83L157.53 79.32Q158.81 80.87 160.34 81.66Q161.88 82.45 163.84 82.45Q166.15 82.45 167.33 81.42Q168.5 80.39 168.5 78.63Q168.5 77.21 167.67 76.38Q166.84 75.56 164.74 75.14L162.6 74.76Q159.08 74.11 157.32 72.45Q155.56 70.8 155.56 67.9Q155.56 66.31 156.17 65.02Q156.77 63.73 157.86 62.85Q158.94 61.97 160.5 61.48Q162.05 61 163.98 61Q166.7 61 168.71 61.95Q170.71 62.9 172.12 64.69L169.4 67.11Q168.46 65.9 167.12 65.17Q165.77 64.45 163.77 64.45Q161.7 64.45 160.57 65.28Q159.43 66.11 159.43 67.69Q159.43 69.21 160.36 69.95Q161.29 70.69 163.26 71.07L165.39 71.52Q169.02 72.21 170.69 73.87Q172.36 75.52 172.36 78.42Q172.36 80.11 171.77 81.49Q171.19 82.87 170.07 83.85Q168.95 84.83 167.33 85.37Q165.7 85.9 163.63 85.9M214.18 85.9Q209.45 85.9 206.76 82.71Q204.07 79.52 204.07 73.45Q204.07 70.42 204.76 68.11Q205.45 65.8 206.76 64.21Q208.07 62.62 209.95 61.81Q211.83 61 214.18 61Q217.32 61 219.44 62.38Q221.56 63.76 222.76 66.45L219.49 68.24Q218.87 66.52 217.57 65.5Q216.28 64.48 214.18 64.48Q211.38 64.48 209.8 66.38Q208.21 68.28 208.21 71.62L208.21 75.28Q208.21 78.63 209.8 80.52Q211.38 82.42 214.18 82.42Q216.35 82.42 217.71 81.3Q219.07 80.18 219.73 78.42L222.87 80.32Q221.66 82.94 219.49 84.42Q217.32 85.9 214.18 85.9M264.55 85.49L254.06 85.49L254.06 82.32L257.34 82.32L257.34 64.59L254.06 64.59L254.06 61.41L264.55 61.41L264.55 64.59L261.23 64.59L261.23 82.32L264.55 82.32M312.95 85.49L297.53 85.49L297.53 61.41L312.95 61.41L312.95 64.86L301.43 64.86L301.43 71.56L311.88 71.56L311.88 75L301.43 75L301.43 82.04L312.95 82.04M360.42 85.49L352.56 72.18L349.9 67.07L349.8 67.07L349.8 85.49L346.07 85.49L346.07 61.41L350.42 61.41L358.28 74.73L360.94 79.83L361.04 79.83L361.04 61.41L364.77 61.41L364.77 85.49M407.82 85.9Q403.1 85.9 400.41 82.71Q397.72 79.52 397.72 73.45Q397.72 70.42 398.41 68.11Q399.1 65.8 400.41 64.21Q401.72 62.62 403.6 61.81Q405.48 61 407.82 61Q410.96 61 413.08 62.38Q415.2 63.76 416.41 66.45L413.13 68.24Q412.51 66.52 411.22 65.5Q409.93 64.48 407.82 64.48Q405.03 64.48 403.44 66.38Q401.86 68.28 401.86 71.62L401.86 75.28Q401.86 78.63 403.44 80.52Q405.03 82.42 407.82 82.42Q410 82.42 411.36 81.3Q412.72 80.18 413.38 78.42L416.51 80.32Q415.31 82.94 413.13 84.42Q410.96 85.9 407.82 85.9M464.16 85.49L448.74 85.49L448.74 61.41L464.16 61.41L464.16 64.86L452.64 64.86L452.64 71.56L463.09 71.56L463.09 75L452.64 75L452.64 82.04L464.16 82.04"/></svg>

