<svg xmlns="http://www.w3.org/2000/svg" viewBox="0 0 137.84 100"><g><g><path fill="#99D9EA" stroke="#071739" stroke-width="4.41" stroke-linejoin="round" d="M2.46 50C2.61 50 2.76 49.94 2.91 49.91C3.07 49.88 3.22 49.85 3.37 49.81C3.68 49.75 3.99 49.68 4.29 49.6C4.9 49.45 5.52 49.29 6.13 49.11C7.35 48.74 8.58 48.31 9.8 47.81C12.25 46.82 14.7 45.54 17.14 44.41C21.6 42.35 26.06 39.35 30.52 35.35C32.75 33.35 34.98 31.1 37.21 28.7C39.43 26.29 41.66 23.73 43.89 21.16C48.06 16.36 52.24 11.54 56.41 8.04C58.49 6.29 60.58 4.88 62.66 3.92C64.75 2.96 66.83 2.46 68.92 2.46C71 2.46 73.08 2.96 75.17 3.91C77.25 4.87 79.33 6.28 81.42 8.03C85.58 11.52 89.75 16.32 93.91 21.12C92.25 19.56 90.59 18.27 88.92 17.39C87.26 16.51 85.6 16.04 83.94 16.04C81.02 16.04 78.1 17.53 75.18 20.03C72.26 22.53 69.34 25.97 66.42 29.4C64.36 31.82 62.31 34.22 60.26 36.38C58.2 38.53 56.15 40.45 54.1 42.04C49.99 45.22 45.89 47.06 41.78 48.12C37.67 49.18 33.57 49.53 29.46 49.73C25.36 49.93 21.25 49.96 17.14 49.98C12.25 50 7.35 50 2.46 50Z"/><path fill="#00A2E8" stroke="#071739" stroke-width="4.41" stroke-linejoin="round" d="M68.92 26.48C69.75 27.44 70.59 28.42 71.42 29.4C73.48 31.82 75.53 34.22 77.58 36.38C79.63 38.53 81.69 40.45 83.74 42.04C87.85 45.22 91.95 47.06 96.06 48.12C100.17 49.18 104.27 49.53 108.38 49.73C112.48 49.93 116.59 49.96 120.7 49.98C125.59 50 130.49 50 135.38 50C135.23 50 135.08 49.94 134.92 49.91C134.77 49.88 134.62 49.85 134.47 49.81C134.16 49.75 133.85 49.68 133.55 49.6C132.94 49.45 132.32 49.29 131.71 49.11C130.49 48.74 129.26 48.31 128.04 47.81C125.59 46.82 123.14 45.54 120.7 44.41C117.72 43.03 114.74 41.25 111.76 39.01C108.78 36.77 105.8 34.06 102.82 31C102.36 30.47 101.91 29.94 101.45 29.4C98.53 25.97 95.61 22.53 92.7 20.03C89.78 17.53 86.86 16.04 83.94 16.04C81.43 16.04 78.93 17.12 76.43 19.02C73.92 20.92 71.42 23.6 68.92 26.48Z"/></g><g transform="rotate(180 68.92 50)"><path fill="#99D9EA" stroke="#071739" stroke-width="4.41" stroke-linejoin="round" d="M2.46 50C2.61 50 2.76 49.94 2.91 49.91C3.07 49.88 3.22 49.85 3.37 49.81C3.68 49.75 3.99 49.68 4.29 49.6C4.9 49.45 5.52 49.29 6.13 49.11C7.35 48.74 8.58 48.31 9.8 47.81C12.25 46.82 14.7 45.54 17.14 44.41C21.6 42.35 26.06 39.35 30.52 35.35C32.75 33.35 34.98 31.1 37.21 28.7C39.43 26.29 41.66 23.73 43.89 21.16C48.06 16.36 52.24 11.54 56.41 8.04C58.49 6.29 60.58 4.88 62.66 3.92C64.75 2.96 66.83 2.46 68.92 2.46C71 2.46 73.08 2.96 75.17 3.91C77.25 4.87 79.33 6.28 81.42 8.03C85.58 11.52 89.75 16.32 93.91 21.12C92.25 19.56 90.59 18.27 88.92 17.39C87.26 16.51 85.6 16.04 83.94 16.04C81.02 16.04 78.1 17.53 75.18 20.03C72.26 22.53 69.34 25.97 66.42 29.4C64.36 31.82 62.31 34.22 60.26 36.38C58.2 38.53 56.15 40.45 54.1 42.04C49.99 45.22 45.89 47.06 41.78 48.12C37.67 49.18 33.57 49.53 29.46 49.73C25.36 49.93 21.25 49.96 17.14 49.98C12.25 50 7.35 50 2.46 50Z"/><path fill="#00A2E8" stroke="#071739" stroke-width="4.41" stroke-linejoin="round" d="M68.92 26.48C69.75 27.44 70.59 28.42 71.42 29.4C73.48 31.82 75.53 34.22 77.58 36.38C79.63 38.53 81.69 40.45 83.74 42.04C87.85 45.22 91.95 47.06 96.06 48.12C100.17 49.18 104.27 49.53 108.38 49.73C112.48 49.93 116.59 49.96 120.7 49.98C125.59 50 130.49 50 135.38 50C135.23 50 135.08 49.94 134.92 49.91C134.77 49.88 134.62 49.85 134.47 49.81C134.16 49.75 133.85 49.68 133.55 49.6C132.94 49.45 132.32 49.29 131.71 49.11C130.49 48.74 129.26 48.31 128.04 47.81C125.59 46.82 123.14 45.54 120.7 44.41C117.72 43.03 114.74 41.25 111.76 39.01C108.78 36.77 105.8 34.06 102.82 31C102.36 30.47 101.91 29.94 101.45 29.4C98.53 25.97 95.61 22.53 92.7 20.03C89.78 17.53 86.86 16.04 83.94 16.04C81.43 16.04 78.93 17.12 76.43 19.02C73.92 20.92 71.42 23.6 68.92 26.48Z"/></g></g></svg>

