<svg xmlns="http://www.w3.org/2000/svg" viewBox="0 0 138.42 100"><g fill="none" stroke="white" stroke-width="2.94" stroke-linecap="round" stroke-linejoin="round"><path d="M1.72 50C1.88 50 2.03 49.94 2.19 49.91C2.34 49.88 2.5 49.84 2.65 49.81C2.96 49.74 3.27 49.67 3.58 49.6C4.21 49.45 4.83 49.28 5.45 49.09C6.69 48.72 7.93 48.28 9.18 47.78C11.66 46.77 14.15 45.47 16.63 44.32C21.16 42.23 25.69 39.19 30.22 35.12C32.48 33.09 34.74 30.81 37.01 28.37C39.27 25.93 41.53 23.33 43.8 20.72C48.03 15.84 52.27 10.94 56.51 7.39C58.62 5.62 60.74 4.18 62.86 3.21C64.98 2.23 67.09 1.72 69.21 1.72C71.33 1.72 73.45 2.23 75.57 3.21C77.68 4.18 79.8 5.62 81.92 7.39C86.15 10.94 90.39 15.84 94.63 20.72C96.89 23.33 99.15 25.93 101.42 28.37C103.68 30.81 105.94 33.09 108.21 35.12C112.74 39.19 117.26 42.23 121.79 44.32C124.28 45.47 126.76 46.77 129.25 47.78C130.49 48.28 131.73 48.72 132.98 49.09C133.6 49.28 134.22 49.45 134.84 49.6C135.15 49.67 135.46 49.74 135.77 49.81C135.93 49.84 136.08 49.88 136.24 49.91C136.39 49.94 136.55 50 136.7 50C136.55 50 136.39 50.06 136.24 50.09C136.08 50.12 135.93 50.16 135.77 50.19C135.46 50.26 135.15 50.33 134.84 50.4C134.22 50.55 133.6 50.72 132.98 50.91C131.73 51.28 130.49 51.72 129.25 52.22C126.76 53.23 124.28 54.53 121.79 55.68C117.26 57.77 112.74 60.81 108.21 64.88C105.94 66.91 103.68 69.19 101.42 71.63C99.15 74.07 96.89 76.67 94.63 79.28C90.39 84.16 86.15 89.06 81.92 92.61C79.8 94.38 77.68 95.82 75.57 96.79C73.45 97.77 71.33 98.28 69.21 98.28C67.09 98.28 64.98 97.77 62.86 96.79C60.74 95.82 58.62 94.38 56.51 92.61C52.27 89.06 48.03 84.16 43.8 79.28C41.53 76.67 39.27 74.07 37.01 71.63C34.74 69.19 32.48 66.91 30.22 64.88C25.69 60.81 21.16 57.77 16.63 55.68C14.15 54.53 11.66 53.23 9.18 52.22C7.93 51.72 6.69 51.28 5.45 50.91C4.83 50.72 4.21 50.55 3.58 50.4C3.27 50.33 2.96 50.26 2.65 50.19C2.5 50.16 2.34 50.12 2.19 50.09C2.03 50.06 1.88 50 1.72 50Z"/><g><path d="M1.72 50C6.69 50 11.66 50 16.63 49.98C20.8 49.95 24.97 49.93 29.14 49.73C33.31 49.53 37.48 49.17 41.65 48.09C45.82 47.02 49.99 45.14 54.16 41.91C56.25 40.3 58.33 38.36 60.42 36.17C62.5 33.97 64.59 31.53 66.67 29.08C69.64 25.6 72.6 22.1 75.57 19.57C78.53 17.03 81.5 15.51 84.46 15.51C86.15 15.51 87.84 15.99 89.53 16.88C91.21 17.78 92.9 19.09 94.59 20.68"/><path d="M69.21 26.12C70.06 27.09 70.91 28.09 71.75 29.08C73.84 31.53 75.92 33.97 78.01 36.17C80.09 38.36 82.18 40.3 84.26 41.91C88.43 45.14 92.6 47.02 96.77 48.09C100.94 49.17 105.11 49.53 109.28 49.73C113.45 49.93 117.62 49.95 121.79 49.98C126.76 50 131.73 50 136.7 50"/></g><g transform="rotate(180 69.21 50)"><path d="M1.72 50C6.69 50 11.66 50 16.63 49.98C20.8 49.95 24.97 49.93 29.14 49.73C33.31 49.53 37.48 49.17 41.65 48.09C45.82 47.02 49.99 45.14 54.16 41.91C56.25 40.3 58.33 38.36 60.42 36.17C62.5 33.97 64.59 31.53 66.67 29.08C69.64 25.6 72.6 22.1 75.57 19.57C78.53 17.03 81.5 15.51 84.46 15.51C86.15 15.51 87.84 15.99 89.53 16.88C91.21 17.78 92.9 19.09 94.59 20.68"/><path d="M69.21 26.12C70.06 27.09 70.91 28.09 71.75 29.08C73.84 31.53 75.92 33.97 78.01 36.17C80.09 38.36 82.18 40.3 84.26 41.91C88.43 45.14 92.6 47.02 96.77 48.09C100.94 49.17 105.11 49.53 109.28 49.73C113.45 49.93 117.62 49.95 121.79 49.98C126.76 50 131.73 50 136.7 50"/></g></g></svg>

