<svg xmlns="http://www.w3.org/2000/svg" viewBox="0 0 139.79 100"><g><g><path fill="#54B5CB" d="M0 50C0.16 50 0.32 49.94 0.48 49.91C0.64 49.87 0.8 49.84 0.97 49.8C1.29 49.73 1.61 49.66 1.93 49.58C2.57 49.43 3.22 49.25 3.86 49.06C5.15 48.68 6.44 48.22 7.72 47.7C10.3 46.65 12.87 45.31 15.45 44.12C20.13 41.95 24.82 38.8 29.51 34.59C31.86 32.49 34.2 30.13 36.54 27.6C38.89 25.07 41.23 22.37 43.58 19.67C47.96 14.62 52.35 9.55 56.74 5.88C58.93 4.04 61.12 2.55 63.32 1.54C65.51 0.53 67.7 0 69.9 0C72.09 0 74.28 0.53 76.47 1.53C78.66 2.54 80.85 4.03 83.04 5.86C87.42 9.53 91.8 14.58 96.18 19.63C94.43 17.99 92.68 16.63 90.93 15.7C89.19 14.78 87.44 14.29 85.69 14.29C82.62 14.29 79.55 15.86 76.48 18.48C73.41 21.11 70.34 24.73 67.26 28.34C65.11 30.88 62.95 33.4 60.79 35.67C58.63 37.94 56.47 39.95 54.31 41.63C49.99 44.97 45.67 46.91 41.36 48.03C37.04 49.14 32.72 49.51 28.4 49.72C24.08 49.92 19.76 49.95 15.45 49.98C10.3 50 5.15 50 0 50Z"/><path fill="#027DBF" d="M69.9 25.27C70.77 26.27 71.65 27.31 72.53 28.34C74.69 30.88 76.85 33.4 79.01 35.67C81.17 37.94 83.32 39.95 85.48 41.63C89.8 44.97 94.12 46.91 98.44 48.03C102.76 49.14 107.07 49.51 111.39 49.72C115.71 49.92 120.03 49.95 124.35 49.98C129.5 50 134.65 50 139.79 50C139.63 50 139.47 49.94 139.31 49.91C139.15 49.87 138.99 49.84 138.83 49.8C138.51 49.73 138.18 49.66 137.86 49.58C137.22 49.43 136.58 49.25 135.93 49.06C134.65 48.68 133.36 48.22 132.07 47.7C129.5 46.65 126.92 45.31 124.35 44.12C121.21 42.67 118.08 40.8 114.95 38.44C111.81 36.09 108.68 33.24 105.54 30.02C105.07 29.46 104.59 28.9 104.11 28.34C101.04 24.73 97.97 21.11 94.9 18.48C91.83 15.86 88.76 14.29 85.69 14.29C83.06 14.29 80.42 15.42 77.79 17.42C75.16 19.41 72.53 22.24 69.9 25.27Z"/></g><g transform="rotate(180 69.9 50)"><path fill="#54B5CB" d="M0 50C0.16 50 0.32 49.94 0.48 49.91C0.64 49.87 0.8 49.84 0.97 49.8C1.29 49.73 1.61 49.66 1.93 49.58C2.57 49.43 3.22 49.25 3.86 49.06C5.15 48.68 6.44 48.22 7.72 47.7C10.3 46.65 12.87 45.31 15.45 44.12C20.13 41.95 24.82 38.8 29.51 34.59C31.86 32.49 34.2 30.13 36.54 27.6C38.89 25.07 41.23 22.37 43.58 19.67C47.96 14.62 52.35 9.55 56.74 5.88C58.93 4.04 61.12 2.55 63.32 1.54C65.51 0.53 67.7 0 69.9 0C72.09 0 74.28 0.53 76.47 1.53C78.66 2.54 80.85 4.03 83.04 5.86C87.42 9.53 91.8 14.58 96.18 19.63C94.43 17.99 92.68 16.63 90.93 15.7C89.19 14.78 87.44 14.29 85.69 14.29C82.62 14.29 79.55 15.86 76.48 18.48C73.41 21.11 70.34 24.73 67.26 28.34C65.11 30.88 62.95 33.4 60.79 35.67C58.63 37.94 56.47 39.95 54.31 41.63C49.99 44.97 45.67 46.91 41.36 48.03C37.04 49.14 32.72 49.51 28.4 49.72C24.08 49.92 19.76 49.95 15.45 49.98C10.3 50 5.15 50 0 50Z"/><path fill="#027DBF" d="M69.9 25.27C70.77 26.27 71.65 27.31 72.53 28.34C74.69 30.88 76.85 33.4 79.01 35.67C81.17 37.94 83.32 39.95 85.48 41.63C89.8 44.97 94.12 46.91 98.44 48.03C102.76 49.14 107.07 49.51 111.39 49.72C115.71 49.92 120.03 49.95 124.35 49.98C129.5 50 134.65 50 139.79 50C139.63 50 139.47 49.94 139.31 49.91C139.15 49.87 138.99 49.84 138.83 49.8C138.51 49.73 138.18 49.66 137.86 49.58C137.22 49.43 136.58 49.25 135.93 49.06C134.65 48.68 133.36 48.22 132.07 47.7C129.5 46.65 126.92 45.31 124.35 44.12C121.21 42.67 118.08 40.8 114.95 38.44C111.81 36.09 108.68 33.24 105.54 30.02C105.07 29.46 104.59 28.9 104.11 28.34C101.04 24.73 97.97 21.11 94.9 18.48C91.83 15.86 88.76 14.29 85.69 14.29C83.06 14.29 80.42 15.42 77.79 17.42C75.16 19.41 72.53 22.24 69.9 25.27Z"/></g></g></svg>

